<?xml version="1.0" encoding="UTF-8" standalone="no"?>
<!-- Generator: Adobe Illustrator 11.0, SVG Export Plug-In . SVG Version: 6.0.0 Build 78)  -->
<svg
   xmlns:xapGImg="http://ns.adobe.com/xap/1.0/g/img/"
   xmlns:xap="http://ns.adobe.com/xap/1.0/"
   xmlns:ns0="http://ns.adobe.com/SaveForWeb/1.0/"
   xmlns:ns="http://ns.adobe.com/Variables/1.0/"
   xmlns:i="http://ns.adobe.com/AdobeIllustrator/10.0/"
   xmlns:x="adobe:ns:meta/"
   xmlns:dc="http://purl.org/dc/elements/1.1/"
   xmlns:cc="http://web.resource.org/cc/"
   xmlns:rdf="http://www.w3.org/1999/02/22-rdf-syntax-ns#"
   xmlns:svg="http://www.w3.org/2000/svg"
   xmlns:sodipodi="http://sodipodi.sourceforge.net/DTD/sodipodi-0.dtd"
   xmlns:inkscape="http://www.inkscape.org/namespaces/inkscape"
   i:viewOrigin="263.1182 427.5"
   i:rulerOrigin="0 0"
   i:pageBounds="0 792 612 0"
   width="87.18"
   height="67.799"
   viewBox="0 0 87.18 67.799"
   overflow="visible"
   enable-background="new 0 0 87.18 67.799"
   xml:space="preserve"
   id="svg2"
   sodipodi:version="0.32"
   inkscape:version="0.45.1"
   sodipodi:docname="Baseball_fielding_positions_tiny.svg"
   inkscape:output_extension="org.inkscape.output.svg.inkscape"
   sodipodi:docbase="C:\Wiki Uploads\To Upload"><defs
   id="defs90">
			
			
			
			
			
			
			
			
			
			
			
			
			
			
			
			
		</defs><sodipodi:namedview
   inkscape:window-height="573"
   inkscape:window-width="744"
   inkscape:pageshadow="2"
   inkscape:pageopacity="0.0"
   guidetolerance="10.0"
   gridtolerance="10.0"
   objecttolerance="10.0"
   borderopacity="1.0"
   bordercolor="#666666"
   pagecolor="#ffffff"
   id="base"
   inkscape:zoom="5.5605537"
   inkscape:cx="43.59"
   inkscape:cy="33.899502"
   inkscape:window-x="132"
   inkscape:window-y="174"
   inkscape:current-layer="svg2" />
	<metadata
   id="metadata4">
		<ns:variableSets>
			<ns:variableSet
   varSetName="binding1"
   locked="none">
				<ns:variables />
				<ns:sampleDataSets />
			</ns:variableSet>
		</ns:variableSets>
		<ns0:sfw>
			<ns0:slices />
			<ns0:sliceSourceBounds
   y="359.701"
   x="263.118"
   width="87.18"
   height="67.799"
   bottomLeftOrigin="true" />
		</ns0:sfw>
<xpacket /><x:xmpmeta
   x:xmptk="XMP toolkit 3.0-29, framework 1.6">

<metadata
   id="metadata92"><rdf:RDF>

 <rdf:Description
   rdf:about="">
 </rdf:Description>

 <rdf:Description
   rdf:about="">
 </rdf:Description>

 <rdf:Description
   rdf:about="">
  <xap:CreateDate>2007-03-15T22:39:07Z</xap:CreateDate>
  <xap:ModifyDate>2007-03-15T22:39:07Z</xap:ModifyDate>
  <xap:CreatorTool>Illustrator</xap:CreatorTool>
  <xap:Thumbnails>
   <rdf:Alt>
    <rdf:li
   rdf:parseType="Resource">
     <xapGImg:format>JPEG</xapGImg:format>
     <xapGImg:width>256</xapGImg:width>
     <xapGImg:height>200</xapGImg:height>
     <xapGImg:image>/9j/4AAQSkZJRgABAgEASABIAAD/7QAsUGhvdG9zaG9wIDMuMAA4QklNA+0AAAAAABAASAAAAAEA
AQBIAAAAAQAB/+4ADkFkb2JlAGTAAAAAAf/bAIQABgQEBAUEBgUFBgkGBQYJCwgGBggLDAoKCwoK
DBAMDAwMDAwQDA4PEA8ODBMTFBQTExwbGxscHx8fHx8fHx8fHwEHBwcNDA0YEBAYGhURFRofHx8f
Hx8fHx8fHx8fHx8fHx8fHx8fHx8fHx8fHx8fHx8fHx8fHx8fHx8fHx8fHx8f/8AAEQgAyAEAAwER
AAIRAQMRAf/EAaIAAAAHAQEBAQEAAAAAAAAAAAQFAwIGAQAHCAkKCwEAAgIDAQEBAQEAAAAAAAAA
AQACAwQFBgcICQoLEAACAQMDAgQCBgcDBAIGAnMBAgMRBAAFIRIxQVEGE2EicYEUMpGhBxWxQiPB
UtHhMxZi8CRygvElQzRTkqKyY3PCNUQnk6OzNhdUZHTD0uIIJoMJChgZhJRFRqS0VtNVKBry4/PE
1OT0ZXWFlaW1xdXl9WZ2hpamtsbW5vY3R1dnd4eXp7fH1+f3OEhYaHiImKi4yNjo+Ck5SVlpeYmZ
qbnJ2en5KjpKWmp6ipqqusra6voRAAICAQIDBQUEBQYECAMDbQEAAhEDBCESMUEFURNhIgZxgZEy
obHwFMHR4SNCFVJicvEzJDRDghaSUyWiY7LCB3PSNeJEgxdUkwgJChgZJjZFGidkdFU38qOzwygp
0+PzhJSktMTU5PRldYWVpbXF1eX1RlZmdoaWprbG1ub2R1dnd4eXp7fH1+f3OEhYaHiImKi4yNjo
+DlJWWl5iZmpucnZ6fkqOkpaanqKmqq6ytrq+v/aAAwDAQACEQMRAD8A9U4q7FXYq7FXYq7FXYq7
FXYq5mVQWYgKNyTsBiqT33m/y/Z1D3SyuP2If3h+8fD+OKpPL5+nmqNN0ySUdpJDQfSFB/4lkTID
mUGQCFfWvOtz9kw2YPgAf1+pkDniGByhRa18xz/3+sSrXqIywH4FMgdQO5icykfL7uazX08h8Se/
0k5H8we5j4xW/wCFbA7mWYnuar/zTg/MSR4xd/hWwG4lmB7Gq/8ANOP5iS+MVw8vuhrDfTxnxB7/
AEEYfzB7k+MVVLXzHB/caxK1OgkLEfiXyQ1A7mQzKya151tvtGG8A8Qo/V6eTGeLIZQiovP08NBq
WmSRDvJGaj6AwH/EsmJA8izEgU4sfN/l+8oEulic/sTfuz95+H8cklOFZWAZSCp3BG4OKuxV2Kux
V2KuxV2KuxV2KuxV2KuxV2KuxV2KuxV2KoTUNW07To/UvJ1hHZTux+SipOKsYuvPF9dsYtFsiR0+
sTdPuBoPpP0ZGUgOaDIDmlsum6rqDc9WvnkHX0UNFH0bKPuyiWo7mk5u5FW2j6db04QKWH7T/Efx
ymWWR6tZmSjcrYOxV2KpRr/m/wAr+Xo1fXNVtdOEgJjW4lRGcDrwQnk30DJRiTyZCJPJK9L/ADW/
LfVLyOysfMdjNdzMEhh9ZUZ2Y0Cpz48mJ6AZI45DokwIRut+e/JmhXgstZ1uz0+7KCQQXMyRuUYk
BuLEGhKnAIE8kCJKBT82Pyzd1RPNGms7EKqi5jJJOwHXD4cu5PAe5lmVsHYq7FUFc6Pp1xXnAoY/
tJ8J/DLI5ZDqzEyELFpuq6e3PSb54x19FzVT9G6n7sujqO9sGbvTG188X1owj1qyIHT6xD0+4mh+
g/Rl8ZA8m4SB5Mo0/VtO1GP1LOdZh3UbMPmpoRkkovFXYq7FXYq7FXYq7FXYq7FXYq7FXYqoXt9Z
2UBnu5VhiH7THqfADqT7DFWI33nDU9RdoNEhMUXRruQb/QOi/icjKYjzYykAgrfQIjIZ76Rry4bd
mckiv07n6cxZ5yeWzRLKTyTRVVVCqAqjoBsBlLW3gQ7FXYq7FWJfmn53XyV5I1DXlVZLuJRFYxP9
l7iU8Y6gUqF+0wr0ByzHDiNM4RsvM/yp/JSw8wadF53/ADCMmua1rSi7ht7l2EccLisZZVK8iyUI
U/CooAu2W5MtbBnPJWwelJ+Uf5axX9nqFv5es7a8sJkubSa3T0SssTckYiMqGoR+0DlXiS72HGXl
XnzRNK1v/nKLy7perWqXmn3GmN61tKKo3CC7daj2ZQctiSMdhsiag9Qj/Jj8rI5FkTy1ZK6EMrBD
UEbg9cq8WXe1+JJmmVsHYq7FXYq7FWmVWUqwDKeoO4OFKV3GgRCQT2MjWdwu6shIFfo3H0ZdDORz
3bI5SOaNsfOGp6c6wa3CZYui3cY3+kdG/A5lRmJcm+MgWXWV/Z30AntJVmiP7SnofAjqD88kyV8V
dirsVdirsVdirsVdirsVY9r/AJwtrBzaWa/W9QJ4iNd1U/5RHf2H4YkqxwabfajOLzWZjLJ+zADR
VHhtsPkMxp5+gaJ5e5NUjSNAiKFQdFAoBmMTbTa7Ah2KuxV2KuxV2KvFv+csreeX8srV4gSkGqwS
TkdkMM6An/ZuuX6f6m3Dzen+S7y1vfJ+h3VoQ1tNYWzxUpQKYl2oOlOlMrnzLCXMp1kGL5v/ADS0
XVNb/wCcktD0vStWk0O/uNM/c6pCpeSLhFdO3FQ8VeaqU+0OuZUDULb4mos40X8ovzGsNZsL67/M
zUL+1tbiKe4sXt3VJ443DPExNy9A6jidj8srOQEcmJmO56xlLU7FXYq7FXYq7FXYqteNJEKOoZD1
UioOEGk2lR02+06c3mjTGKT9qAmqsPDfY/I5kwz9C3Qy97I9A84W1+4tLxfqmoA8TG2ysf8AJJ7+
x/HMkFvZDirsVdirsVdirsVakkSNGkkYIiAszMaAAdSTirCtY803uqTNYaITHANpr3cEj/JPYfic
jOYiN2MpAKenaVbWKfAOcx+3K3U/LwGYU8hk40pko3K2DsVdirsVdirsVdirsVSjzZ5Y0zzR5dvt
B1NS1nfRmNytOSMCGSRK/tI4DD3GSjKjbKJo28M8uS/nV+UQk0N9Ak83+VY5GaymsebSIrmp4hFl
kjFTVkdKV6N3zIlwz3ui2nhky7Qvzk8+a5rGn2Vt+XWpWdlPPGl7qF2ZEjihZwsjrziiViq1P2/o
yBxRA5sTADqh9c8s+YJv+cmPL2vxafO+i2+nyRT6iqEwI5t7tQrP0BrIo+nEEeHSgjgeyZQ1OxV2
KuxV2KuxV2Kpbqfmby5pTcNU1WzsGpy43VxFCeI70dl2yQiSkAlrSvM/lrWDTSdWstRIFSLS4inN
AaV/ds3hiYkc1IIRd/qOn6fbm5v7qGztwQpmnkWJAT0HJyBvgAtQLY/qPmLyDfJ8ev6akw+xKt3B
UfP49xlsDKPRsiZDom/lnz0iKkN3dR39gxKQanbyLMm2xDOhPKnfuMy4ytyAbZ7HIkiLJGwdHAZW
U1BB6EHJJbxV2KuxVTuLiC2geedxHDGOTu3QDFWB6lqt95knMMBa30iM/ETs0hHj/TtleTII+9hO
dI62tYLaERQqFQfifE5hSkSbLik28Z86axq8P/OS/k/TYb64j06fTg89kkrrA7VvPieMHgx+EdR2
GXQHoLbEegva8x2l8/8A/OQdzrU35j+SNCsdXvNLt9XkS1uHs5pIjSe6SLnRWUMyhtq5k4a4SW/H
9JKe/wDQveo/+XB8wf8ASQ3/ADXg8YdyPF8nrWmWbWWm2lk0z3DW0McJuJTV5DGoXm5/malTlBNl
qJROBDsVdirsVdirsVdirsVdirsVdirsVdirsVdir5283eWtE8yf85P2ula3ai80+XTQ8luzOgLR
wSMtShU7EeOZUZEY7DkA1Bf+d/5OeTPK/k+bzf5Vik0PVtIlgeNreaWknqTJDtzZijLz5AoR0NcG
LKSaKMcyTRRP5va1fa5/zjbperX4/wBNvV0+W4NOPJz9pwB0Dn4vpxxipkLAVIp/5V/5x+/KK+8s
aPe3Wg+pdXVlbTTyfW71eUkkSszUWYAVJ7DIyyyBO7GWSVvQtA8leWfL+hjQ9Hsha6YrtIsHqSS0
dzVmDys7/jlfiG7YcZu0Tpuq33lucQzlrjSJG+E/tRk+H9O+ZmPIJe9yYTtnlvcQXMCTwOJIZByR
16EZYzVMVWTTRQRPNM4jijBZ3Y0AAxVgOoajdeZbzgvKHR4G2HQyEdz7/qyrJk4R5sJzpMYYYoY1
iiUJGooqjMIm3FJtfgQ8I89f+tT+Sv8AtmD9d9mRD+7LdH6C93zHaXzn/wA5HzanB+aPkGbSoFut
UiljewtXIVJbhbuMxRsxKABnoCeQ+eZWH6Tbfj+ksn/xh/zk3/1Imm/9JkH/AGV5Dhx97God72XK
Gp2KuxV2KuxV2KuxV2KuxV2KuxV2KuxV2KuxV2KvnDz3D5tm/wCcl7dPKc9pb62dNX0Jb8MYAohk
58uCu1eNabZlxrw93IjXBuk/5lR/mFb+YtCtfzgvfrXku5uRU6MyxW4kH+/KxxyHiGqeQrxrwNa4
YcNHh5pjVenm9G/5yWtrW2/Jx7a0jWK0guLOO3ijACLGh4oqgbUCjbKsH1NeL6kr8teQ/wA9Z/Lm
lTWXn+K2s5bO3e2tzaRsY4miUolSm/FaDJSnC+TIyjfJ6/5VsdcsPL9naa7fjU9WiVhdX6oIxKxc
kHiAAKKQMokQTs1SIvZM5oYpo2ilUPGwoynADSAaS7T9RuvLV5wblNo87bjqYye49/15m48nEPNy
oTtn0M0U8STQuJIpAGR1NQQctZsF13VpfMGoHTrRymm25rM46yEHr8v5fvyGSfCGM5UEZDDFBEsU
S8Y0FFAzAJs24hNqmBDsVfPH5ta/pHl7/nJDynrGrz/VdNtNLVrifg8nEM96g+GNXc/Ew6DMnGLg
Q3wFxLPf+hjfyZ/6mH/pzvv+qGV+DLuYeHJgv52XENz+cP5W3MDc4Zrq0kiehFVe9iKmhoehy3GP
QWcPpL6EzFaHYq7FXYq7FXYq7FXYq7FXYq7FXYq7FXYq7FXYq7FXit1o+rH/AJyis9TFlcHTV00o
18In9AN9XkHEy04VqelcyL/dt1+hkH/OQvla58xflhfw2du91f2MsN7aQRqWdmjbg/FRUk+lI+wy
GGVSY4zRYf8AmEvmDzD/AM436Uv6Ou5NYAs4rqz9CX6x6lsxikZouPPcpy6dDlkKEyzjtIvYvJsU
sPlDQ4ZkaOWPT7VJI3BVlZYEBVgdwQconzLVLmU4yLF2Kqc0MU8TRSryjcUYHCDRtINIPQtWl8v6
gNOu3L6bcGsLnrGSevy/m+/M/HPiDlwlYTLzN5Zm9Y6vpA43i/FPAvSQdyB/N4jv8+spRBFFJFoD
TNThvoeS/DKu0sR6g/0zByYzEuLOFI3K2DsVS7UfLnl7U51n1LS7S9nVQiy3EEUrhASQoZ1Y0qxN
MkJEckgkIX/A/kr/AKl/Tf8ApEg/5ow8cu9PEe9HT6JotxPbT3Gn2009nx+pyyQxs8PEgr6bEEpQ
io44OIoso3IodirsVdirsVdirsVdirsVdirsVdirsVdirsVdirsVdirsVdirsVdirsVQWp6nDYw8
m+KVtooh1J/plmPGZFnCFo/yz5Zm9Yavq45XjfFBA3SMdiR/N4Dt8+mdGIAoOUBTK8KWKeZvLM3r
HV9IHG8X4p4F6SDuQP5vEd/n1Eogiigi0Bpmpw30PJfhlXaWI9Qf6Zg5MZiXFnCkblbB2KuxV2Ku
xV2KuxV2KuxV2KuxV2KuxV2KuxV2KuxV2KuxV2KuxV2KuxV2KuxV2KoLU9ThsYeTfFK20UQ6k/0y
zHjMizhC0f5Z8szesNX1ccrxviggbpGOxI/m8B2+fTOjEAUHKApleFLsVdirFPM3lmb1jq+kDjeL
8U8C9JB3IH83iO/z6iUQRRQRaA0zU4b6HkvwyrtLEeoP9MwcmMxLizhSNytg7FXYq7FXYq7FXYq7
FXYq0a0NNz2BxV4vNpv/ADk15ikmu01TTfKlsJGW205VWZyqsQrNIYp2ofmK/wAozIvGPNuuARP5
Rfmd5uvPNmqeQPPUcY8yaYhlivIgqLMi8SQyoAlSsiupUCq9QCNxkxirHJE4CrCSee73zrrn57W/
kvS/M95oOnS2S3FbXejLE8jfCGjry49zkoUIXTKNCN0hPO0v5t/lGln5h/xU/mnQZLlbe7sdQTi9
XUsByLSsAQhoysKH9kiuGPDPaqWPDLanvml6hDqWmWmowAiC8hjuIg2x4SoHWvvQ5jEUaaSKRWBD
sVdirsVdirsVdirsVdiqC1PU4bGHk3xSttFEOpP9Msx4zIs4QtH+WfLM3rDV9XHK8b4oIG6RjsSP
5vAdvn0zoxAFBygKZXhS7FXYq7FXYqxTzN5Zm9Y6vpA43i/FPAvSQdyB/N4jv8+olEEUUEWgNM1O
G+h5L8Mq7SxHqD/TMHJjMS4s4UjcrYOxV2KuxVinn78zvKPkWyiudeuWEtxX6rZQL6lxLx+0VSqg
AfzMQPfJwxmXJnGBLDdK/wCck/K15qtjp11omsae2pSxwWc89unBnlYKn2ZC25P7IOWHAWRxF6H5
t84eXvKWjSavrt0LWzRgimhZ5JGBKxxoN2Y0Ow+fTKoxMjQYRiS8xH/OUvlAKtzJoWtR6W7cV1Br
eL09zQGvq06+Brl35c97Z4Jew2F5Fe2NvewhhDdRJNGJFKOFkUMOSncGh3GUEU1EN3l5aWVpNeXk
yW9rbo0s88hCoiIKszE9ABiBagPnLyFqV15t/NnzJ+YVqrwaSUOn6a5HEuAqRhvEH04+TDsX9sz4
w9IBcqMdqQPmDWfNNp/zkHZXug6emsawunCOGzmmSBXUxSKSZJGRahfffBKI4a6LKIpS/M7zF561
bV9HsPzX0qby15JW6WSX9GotyJJACFEk6ySCvEt9nelSEY5CAAHp3LGAA5c307pr2D6davp5RrBo
YzZtEaxmEqPTKEfs8aUzEPNxyicCHYq7FXYq7FXYq7FXYqgtT1OGxh5N8UrbRRDqT/TLMeMyLOEL
R/lnyzN6w1fVxyvG+KCBukY7Ej+bwHb59M6MQBQcoCmV4UuxV2KuxV2KuxV2KsU8zeWZvWOr6QON
4vxTwL0kHcgfzeI7/PqJRBFFBFoDTNThvoeS/DKu0sR6g/0zByYzEuLOFI3K2DsVdir50/Na9tPL
X/OQfl7zN5nt2l8tG1WO3uCpkjjdFkWvGhqYpJFkIG+9RvmVj3hQ5t8N40HvWk6zoHmCxjvdLu7f
UrMlWSWF1lUOvxCtK8WU+O4zHIIaSCHif/OU9vdRS+T9ZubZrzy5p14/6UgUAqS7RMquDt+8SN1F
du3fL8HUN2Hq9c8qecPJ3mvS1k0C9t7219MB7ReIeJKU4SQGjJ4UIymUSDu1GJHNPJ57e1tpLid1
htoEaSWRiFVEQVZiewAGRQ+XvzA/Nyx/MjXf8OQaqug+RrZud9dyt6c18UbYKp3CmlVU/wCs29Fz
MxYuHc83JhjpnPlbzL+XypZ+X/L2oWrcFKWlnA9WIVS7HxJoCzE9euXNjCNZ1PTtN/P+1utQuorO
2XT+LTzusaAtG4FWYgCpxVOPzm/NfyzrHkC58p2NzHrOs6jLbx2f1Qifj6c6SVLJyBY8OChTU8sq
8KpWGvgo29l/LLRtQ0X8v9A0rUV9O+tLKJLiOtSj0qUJ8VrTMTIbkXHmbLJ8gxdirsVdirsVdirs
VQWp6nDYw8m+KVtooh1J/plmPGZFnCFo/wAs+WZvWGr6uOV43xQQN0jHYkfzeA7fPpnRiAKDlAUy
vCl2KuxV2KuxV2KuxV2KuxVinmbyzN6x1fSBxvF+KeBekg7kD+bxHf59RKIIooItAaZqcN9DyX4Z
V2liPUH+mYOTGYlxZwpG5WwdiqX675f0XXtOk03WbKK/sZftwTKGFR0Yd1YdiN8kJEckgkPnP80/
IDfk9dWHnjyJfzWdvJdJa3elyyGRDyVpAlT8UkTCIhlepB3B8MnHPj2LfCXFsX0dGLLWtGjN3bJN
Z6hAjy2syrIjJKobg6sCrdcxuRaOReF/m3+SOieWdHuvPHki4m0DVdIpctBDK/pMvIB/TJJaNvir
SvE/Zpl+PKSaLdDJexZ95I833/njyFpLyQLJfapbNHqQK0jPFmhlPEigV+JbwodsPhiJ4jyZww+p
PrD8lPywt7ZUm8tabcS9Xke2j3PsKbDMWeokTts5oxgJbqn5T+UtFu11jQ9FtLV4qnlDCiyRclKs
UYCvEqSD/TMnBnvY82ucK3C2z/KTyp5iuV1bzDpEF23EJEZU+N1HSpFDxFdsc+ethzWEL3Ke235T
eQdOjZtF0Sz028/3XdwxL6oPhzNW4nuK5jw1EgbO7M4wq6dqNxb3B03UhwnTaOQ9GHbf9Ry6cARx
R5ODlxUnGUOO7FXYq7FXYq7FUFqepw2MPJvilbaKIdSf6ZZjxmRZwhaP8s+WZvWGr6uOV43xQQN0
jHYkfzeA7fPpnRiAKDlAUyvCl2KuxV2KuxV2KuxV2KuxV2KuxVinmbyzN6x1fSBxvF+KeBekg7kD
+bxHf59RKIIooItAaZqcN9DyX4ZV2liPUH+mYOTGYlxZwpG5WweYedtD/PKPzTPq/k3WrGTSJkjU
aLeqQEZEAJBKvXk1Wqrp2FDSuXQMKotsTGt2NTflL+aXnzV7Gf8AMvVbSLQrCT1k0XTq/vG7hjQA
VG3IszAVApWuT8SMfpTxxHJmv5j6B+ad1eadfeQ9ZttOWyjkjuNOuV/dTcypBPwSr8ISi/CCN6Nv
lcJR6sYmPV51rXlX8+PPjJ5b8x6np9lpLuv16HT1LNIEIarGhrRhX7YFex2GZAEIjicjHjHR735O
8o6X5V0O10mwX93bRJF6h+0wQU3P45gZcpmXMjGk9ypk0QCKHphVwAAoOmKt4FS7WdGt9Tt+D/BM
n91L3B8D7ZbiymBYyjaSadqNxb3B03UhwnTaOQ9GHbf9RzJnAEcUeTr8uKk4yhx3Yq7FXYqgtT1O
Gxh5N8UrbRRDqT/TLMeMyLOELR/lnyzN6w1fVxyvG+KCBukY7Ej+bwHb59M6MQBQcoCmV4UuxV2K
uxV2KuxV2KuxV2KuxV2KuxV2KsU8zeWZvWOr6QON4vxTwL0kHcgfzeI7/PqJRBFFBFpHaebvL8rr
bzX9tb31eLWks0aych4KxDHMKeIguLKBCdZUwY1qH5l/l7p15LZ3vmTTYLuBik8D3UQdHUkMrryq
rAjcHfJjHI9GQgVsPm/S/MJ+q+V7+31IttNcWsqSLGD2JQnj9OWxgIjik3YsRJ3ZVo2jW+mW/BPj
mf8AvZe5PgPbMXLlMy7CMaTHKmTsVdirsVdirsVS7WdGt9Tt+D/BMn91L3B8D7ZbiymBYyjaSadq
Nxb3B03UhwnTaOQ9GHbf9RzJnAEcUeTr8uKk4yhx3YqgtT1OGxh5N8UrbRRDqT/TLMeMyLOELR/l
nyzN6w1fVxyvG+KCBukY7Ej+bwHb59M6MQBQcoCmV4UuxV2KuxV2KuxV2KuxV2KuxV2KuxV2KuxV
LfMuiJrvl/UdGe4ltF1C3ltjdW7FJYvUUqHRh3WtcVeFeb/+cT/y0sPK1zcWJuI7i0heW51K6uWZ
wqqWMpHwQ/D1I47jFUH/AM4sa7q2pfl7Pb6jO866fePBYtKSWFv6aMEBO5VXZgPDp0GYmeNG3Hyj
dgXkbQtA1f8AM78yRqum22oGPVZ/QNzGsoj53dxzKhqircRvmRAbBuiNgpazplj5K/ODydceTybC
71C5SPUrGFiYzbtNGjc0J2SRC/Lt8PIUIrjkjcSGcTRfXYIIqOmaly28CuxVhHnz80PK/ll/0fd6
ra2moyIHKSyqrohJUMEryNSDTbMrBg4tzyapzrYKPkn82/JuvzJpketWc2pn4YUWZA83sqkglvlj
nwcO45LCd82e5itrsVaJAFT0wq8C/PDzr+YMt1e2flayt7XSNJtHvbjzFKebvwRneKFWBWvwEfZb
sarmx0+IxFnq4+SVp3+RHnfVNe8i6fPr10brUJnnUXThVLBJmVVPEKNgNsjmxdQ4mTH1DCvz9v8A
XpvzS8q+X7PWb/TbDUYIxcR2VxJDVnndS/FTxL8dgSDksERScQ2VfOv5WfmD+XvlRvzB0bzjqMt1
pTRTT6bqUn1kGJ5FjDfH+7LBnB4MnTvXbMgBufQ/5aebZPN/kPRPMksIgn1K2WSeFa8VlUlJONd+
PNTx9sVZLirsVdirsVdirsVdirsVdirsVdirsVdirsVdirwT82P+cevPXm1tVu7Pz3eTwXEslxa+
Wrv1RYgE8kgqs3FQvQMY/uxVKPyU1z/Eflu/0yx0mPQfMPlNhaalpdnzWKSJuS+qgdnb1ecbiReR
qfirU0wEA80EW8m8oeVbvzB5+88LBrd9o31fUZS5sJTEZOdzPs9CK8eO3zwpX32l6l+VPmm1168k
j1/TdTkEE9/coTewmnxcXJc8uHevxAU2xV9Y+UG1FtNDXBrbEA2pP2uP/NPhmu1PDxbc3Ix3W6fZ
jNiD1b6/9Ql+oU+s0+GvWnfj7+GWY+Hi9XJjK62fJ35jWNtf/nt5btNQhW4gmtIxPDMOQaktyaMG
67jvm2cVNfzR/LTyfH5Rv9UsLCHTL/TojPBPbD0gShBKsqUU8ugNKg4q9s/IzzBq/mD8qtA1XVpD
LfSxSRSTNUvILeZ4FdyerOsYYnvmrzxAmQHJgbDPMpZpF5t/SX6P/wBF/wB59/rPH7fH/mnxzJ03
Dxb82vJdPKPPf/KD+Yf+2Zef9Q75snHY9+Rn/ktdM/17n/qIfAqVfm9bebbL85/IclhFFN5glS3l
0y3vS3pGT60yxLNQowBK70b8cAAHJAFI3865/wDnIG60eA/mHp0cXkNJ45NZi8tsgPBXHH1DK08l
A1CvL4OVK70oUvpL8t9R8p6h5G0W48pEf4e+rJFp6bhkSL92Y3rU80ZSrVPXxxVkmKuxV2KuxV2K
uxV2KuxV2KuxV2KuxV2KuxVIPPmreZtI8q32oeWdK/TWtQBGttNLBBIPUUSbll+zHyIA3J7HFXj9
z/zkf+Yctm9nY/lVrUfmFhwjimjna3RyPtsRAjso60+Hb9odcVTn/nG/8q/MnlCx1rX/ADYQvmTz
NOs9zbKysYkUu/xlDw5u8rFgtQBTfqMVeP29v568qfmf5+vv8Ea7qdlq2rXUtpcWljcNG0YupnR1
cRlWV1kBBBxVy+UfzA/N/XdOttQ0hvLnlPT5BPefWX/0iQE0NEIV+ZWqr8AC1NSdhlWXKIBlGNvq
tEREVEUKigBVAoAB0AGatyl2BXYq+Wv+cgLLWZf+cgvLMXl1YV1mfTYDa+t/dmUz3Yq9Af2Rmw00
vRv0aMg3Tib8kvzj85+jaectZsNK0Esr3NnpwZ5pOJqKhlC/8E5AO/E0wy1URy3QMRe/aDomm6Fo
1lo2mRejYWEKQW0dakIgpuT1J6k9zmBKRJst4FI/IpaIBFD0wq8r/OXR7Wx8na/PbsqrPpt7W37g
/V33X/JzYafKZCi4+SNIb/nFDy5bS/lhperXNJGWa6FvEeilbh/jPia9PD9WS1sV/wCch9X07R/+
ch/y91XUphbafZRW091OwJCRpeSFmIUE7DwGKsj/ADj/AOcjPy0uvI2seX/L17+n9Z1q1l063tra
KUopukMXqM7oqnjyqoWpLU+eKsx/5xy8n6x5U/KjS9O1iMwahO8t5LasCHhE78kRwejcKFh2Jpir
03FXYq7FXYq7FXYq7FXYq7FXYq7FXYq7FXYq7FXYq7FXYqxPzJ5buIrg6zow4XaVa4t1G0g7kDx8
R3+fWMoiQopBpdo2s2+p2/NPgmT+9i7g+I9s1mXEYFyYytMcqZOxV4X+YflTzLe/85IeTddtNMuJ
9GsrSBLvUI42aGNlnumIdxsCA6n6cy8UgMZFtUgeIPdMxG12KuxVLtZ1m30y35v8cz/3UXcnxPtl
uLEZljKVKOh+U/r3qaj5hiW5e5UqtjMoaMRsKESI1Qag/ZP079NnGIiKDjE2yfTtM03TbVbTTrSG
ytEJKW9vGsUYLGpIRAqipySEDrfk7yjr0scuu6Hp+qyxLxikvrWG5ZFrWimVXIFT2xVT0jyP5K0W
f19H8v6bps/+/bOzggff/KjRTiqd4q7FXYq7FXYq7FXYq7FXYq7FXYq7FXYq7FXYq7FXYq7FXYq7
FWJ+ZPLdxFcHWdGHC7SrXFuo2kHcgePiO/z6xlESFFINLtG1m31O35p8Eyf3sXcHxHtmsy4jAuTG
VpjlTJokAVPTCrgQRUdMVbwKl2s6zb6Zb83+OZ/7qLuT4n2y3FiMyxlKlvlvy3cS3A1nWRzu3o1v
bsNox2JHj4Dt8+mzjERFBxibZZkkOxV2KuxV2KuxV2KuxV2KuxV2KuxV2KuxV2KuxV2KuxV2KuxV
2KuxV2KuxV2KsT8yeW7iK4Os6MOF2lWuLdRtIO5A8fEd/n1jKIkKKQaXaPrVvqVvzWiTIP30RO6n
x+WazLiMC5MZWxTzr54060t3SS9is7BTxmu5pFjVz/KrMRt+vMvBgrc82qc+gSTyr+d3kJJU0+68
w2XpE8YZnmVQnszMQOP6sGfBe45rCdbF6Lq2uWlhaLMGEryituimvOvRqj9n3zGxYjI02SlTXlvy
3cS3A1nWRzu3o1vbsNox2JHj4Dt8+myjERFBxybZZkkOxV2KuxV2KuxV2KuxV2KuxV2KuxV2KuxV
2KuxV2KuxV2KuxV2KuxV2KuxV2KuxV2KsA/MnTLTR9H1HzTE/oRWUEk+oxKePONVqxX/ACj3Xv8A
Pq0r5j8keUp/zHuZvOPnF3nsmlePS9LV2WEIho32SDwBHHahYglsVeg3X5Xfl9c25t5NBtFQinKJ
PSf/AIOMq/44q9p8oeUWiEOoampMqKotLZ+kar9kkHoR+yvb59GlZjirsVdirsVdirsVdirsVdir
sVdirsVdirsVdirsVdirsVdirsVdirsVdirsVdirsVdirsVeef8AOQlvdXH5Mea47apkWzEjca19
OKVJJenb01auKvPPyS0C21T8k9B1HSPjurUXMOoWo3JkS5kYkD+biytTuD49VXqfk/yf6HDUtST9
/s1vbsPseDuP5vAdvn0VZnirsVdirsVdirsVdirsVdirsVdirsVdirsVdirsVdirsVdirsVdirsV
dirsVdirsVdirsVdiqje2VrfWc9ldxLNaXUbw3ELbq8cilXU+xU0xV8yWPk785fyN1/UJfJ2mP5v
8jX8pmOmx1e4TeiVRA0qyqtFLojKwG4GwCrIx/zkd+ZOoIbbR/yn1c6g3wo1x64gjY9DI31ZNq+L
L8xir3uCRpII5HQxM6hmianJSRUqabVGKr8VdirsVdirsVdirsVdirsVdirsVdirsVdir//Z</xapGImg:image>
    </rdf:li>
   </rdf:Alt>
  </xap:Thumbnails>
 </rdf:Description>

 <rdf:Description
   rdf:about="">
  <dc:format>image/svg+xml</dc:format>
 </rdf:Description>

<cc:Work
   rdf:about=""><dc:format>image/svg+xml</dc:format><dc:type
     rdf:resource="http://purl.org/dc/dcmitype/StillImage" /></cc:Work></rdf:RDF></metadata></x:xmpmeta>
                                                                                                                                                                                                                                                                                                                                                                                                                                                                                                                                                                                                                                                                                                                                                                                                                                                                                                                                                                                                                                                                                                                                                                                                                                                                                                                                                                                                                                                                                                                                                                                                                                                                                                                                                                                                                                                                                                                                                                                                                                                                                                                                <xpacket />
			</metadata>
		<g
   id="g7">
				<path
   style="fill:#ccebc0"
   id="path9"
   d="M 0.675,21.541 L 43.59,64.456 L 86.505,21.541 C 75.846,8.608 60.567,0.5 43.59,0.5 C 26.613,0.5 11.335,8.608 0.675,21.541 z " />
				<path
   style="fill:none;stroke:#aaa9aa"
   id="path11"
   d="M 0.675,21.541 L 43.59,64.456 L 86.505,21.541 C 75.846,8.608 60.567,0.5 43.59,0.5 C 26.613,0.5 11.335,8.608 0.675,21.541 z " />
			</g><g
   id="g13">
				
					<rect
   style="fill:#faecc3"
   id="rect15"
   height="23.745001"
   width="23.745001"
   transform="matrix(0.7071,-0.7071,0.7071,0.7071,-20.9376,44.7822)"
   y="35.793999"
   x="31.718" /> 
				
					<rect
   style="fill:none;stroke:#aaa9aa"
   id="rect17"
   height="23.745001"
   width="23.745001"
   transform="matrix(0.7071,-0.7071,0.7071,0.7071,-20.9376,44.7822)"
   y="35.793999"
   x="31.718" /> 
			</g><g
   id="g19">
				
					<rect
   style="fill:#aaa9aa"
   id="rect21"
   height="5.125"
   width="5.125"
   transform="matrix(0.7071,-0.7071,0.7071,0.7071,-20.9378,44.7837)"
   y="45.103001"
   x="41.027" /> 
			</g><g
   id="g23">
				
					<rect
   style="fill:#aaa9aa"
   id="rect25"
   height="5.125"
   width="5.125"
   transform="matrix(0.7071,-0.7071,0.7071,0.7071,-11.7454,40.9761)"
   y="32.103001"
   x="41.027" /> 
			</g><g
   id="g27">
				
					<rect
   style="fill:#aaa9aa"
   id="rect29"
   height="5.125"
   width="5.125"
   transform="matrix(0.7071,-0.7071,0.7071,0.7071,-30.1302,48.5913)"
   y="58.103001"
   x="41.027" /> 
			</g><g
   id="g31">
				
					<rect
   style="fill:#aaa9aa"
   id="rect33"
   height="5.125"
   width="5.125"
   transform="matrix(0.7071,-0.7071,0.7071,0.7071,-24.7454,35.5913)"
   y="45.103001"
   x="28.027" /> 
			</g><g
   id="g35">
				
					<rect
   style="fill:#aaa9aa"
   id="rect37"
   height="5.125"
   width="5.125"
   transform="matrix(0.7071,-0.7071,0.7071,0.7071,-17.1302,53.9761)"
   y="45.103001"
   x="54.027" /> 
			</g><g
   id="g39"
   i:knockout="Off">
				<path
   id="path41"
   d="M 46.435,67.416 C 46.062,67.607 45.283,67.799 44.298,67.799 C 42.018,67.799 40.314,66.36 40.314,63.695 C 40.314,61.151 42.03,59.447 44.538,59.447 C 45.534,59.447 46.182,59.664 46.458,59.807 L 46.194,60.66 C 45.809,60.467 45.246,60.323 44.573,60.323 C 42.677,60.323 41.418,61.535 41.418,63.66 C 41.418,65.651 42.558,66.912 44.514,66.912 C 45.162,66.912 45.81,66.779 46.23,66.576 L 46.435,67.416 z "
   i:knockout="Off" />
			</g><g
   id="g43"
   i:knockout="Off">
				<path
   id="path45"
   d="M 56.88,45.184 L 56.857,45.184 L 55.502,45.916 L 55.297,45.111 L 57.002,44.199 L 57.9,44.199 L 57.9,52 L 56.88,52 L 56.88,45.184 z "
   i:knockout="Off" />
				<path
   id="path47"
   d="M 61.116,44.031 C 61.572,43.924 62.304,43.851 63.024,43.851 C 64.067,43.851 64.74,44.031 65.231,44.439 C 65.652,44.752 65.916,45.232 65.916,45.868 C 65.916,46.66 65.388,47.344 64.548,47.644 L 64.548,47.679 C 65.316,47.859 66.216,48.495 66.216,49.695 C 66.216,50.392 65.941,50.92 65.521,51.316 C 64.968,51.832 64.056,52.072 62.737,52.072 C 62.017,52.072 61.465,52.023 61.117,51.976 L 61.117,44.031 L 61.116,44.031 z M 62.16,47.344 L 63.108,47.344 C 64.2,47.344 64.848,46.756 64.848,45.977 C 64.848,45.04 64.139,44.657 63.083,44.657 C 62.604,44.657 62.327,44.692 62.159,44.729 L 62.159,47.344 L 62.16,47.344 z M 62.16,51.208 C 62.376,51.244 62.664,51.256 63.036,51.256 C 64.116,51.256 65.112,50.86 65.112,49.684 C 65.112,48.592 64.164,48.124 63.024,48.124 L 62.16,48.124 L 62.16,51.208 z "
   i:knockout="Off" />
			</g><g
   id="g49"
   i:knockout="Off"
   transform="translate(10.430617,1.4387056)">
				<path
   id="path51"
   d="M 37.921,35.834 L 37.921,35.187 L 38.749,34.383 C 40.741,32.487 41.653,31.479 41.653,30.302 C 41.653,29.51 41.281,28.778 40.117,28.778 C 39.409,28.778 38.821,29.138 38.461,29.438 L 38.125,28.694 C 38.653,28.25 39.433,27.902 40.333,27.902 C 42.001,27.902 42.709,29.054 42.709,30.17 C 42.709,31.61 41.665,32.774 40.021,34.358 L 39.409,34.934 L 39.409,34.958 L 42.901,34.958 L 42.901,35.833 L 37.921,35.833 L 37.921,35.834 z "
   i:knockout="Off" />
				<path
   id="path53"
   d="M 44.448,27.866 C 44.905,27.758 45.636,27.686 46.356,27.686 C 47.401,27.686 48.073,27.866 48.564,28.274 C 48.985,28.586 49.249,29.066 49.249,29.702 C 49.249,30.494 48.721,31.178 47.881,31.478 L 47.881,31.514 C 48.649,31.694 49.549,32.33 49.549,33.53 C 49.549,34.226 49.273,34.754 48.853,35.15 C 48.301,35.666 47.389,35.906 46.07,35.906 C 45.349,35.906 44.797,35.858 44.449,35.81 L 44.449,27.866 L 44.448,27.866 z M 45.493,31.178 L 46.44,31.178 C 47.532,31.178 48.18,30.59 48.18,29.81 C 48.18,28.874 47.472,28.49 46.416,28.49 C 45.936,28.49 45.66,28.526 45.492,28.562 L 45.492,31.178 L 45.493,31.178 z M 45.493,35.043 C 45.708,35.078 45.997,35.09 46.368,35.09 C 47.448,35.09 48.444,34.694 48.444,33.519 C 48.444,32.427 47.497,31.959 46.356,31.959 L 45.493,31.959 L 45.493,35.043 z "
   i:knockout="Off" />
			</g><g
   id="g55"
   i:knockout="Off">
				<path
   id="path57"
   d="M 21.34,50.134 C 21.64,50.315 22.324,50.613 23.068,50.613 C 24.412,50.613 24.844,49.761 24.832,49.101 C 24.82,48.009 23.836,47.541 22.816,47.541 L 22.228,47.541 L 22.228,46.75 L 22.816,46.75 C 23.584,46.75 24.556,46.354 24.556,45.43 C 24.556,44.807 24.16,44.254 23.188,44.254 C 22.564,44.254 21.964,44.529 21.628,44.77 L 21.34,44.002 C 21.76,43.702 22.552,43.402 23.392,43.402 C 24.928,43.402 25.624,44.314 25.624,45.261 C 25.624,46.077 25.132,46.761 24.184,47.109 L 24.184,47.133 C 25.144,47.314 25.924,48.033 25.924,49.125 C 25.924,50.373 24.94,51.465 23.08,51.465 C 22.204,51.465 21.436,51.189 21.052,50.937 L 21.34,50.134 z "
   i:knockout="Off" />
				<path
   id="path59"
   d="M 27.616,43.365 C 28.072,43.258 28.804,43.185 29.524,43.185 C 30.568,43.185 31.24,43.365 31.732,43.773 C 32.152,44.086 32.416,44.566 32.416,45.202 C 32.416,45.994 31.888,46.678 31.048,46.978 L 31.048,47.013 C 31.816,47.193 32.716,47.829 32.716,49.029 C 32.716,49.726 32.44,50.254 32.02,50.65 C 31.468,51.166 30.556,51.406 29.236,51.406 C 28.516,51.406 27.964,51.357 27.616,51.31 L 27.616,43.365 L 27.616,43.365 z M 28.66,46.678 L 29.608,46.678 C 30.7,46.678 31.348,46.09 31.348,45.311 C 31.348,44.374 30.64,43.991 29.584,43.991 C 29.104,43.991 28.828,44.026 28.66,44.063 L 28.66,46.678 z M 28.66,50.542 C 28.876,50.578 29.164,50.59 29.536,50.59 C 30.616,50.59 31.612,50.194 31.612,49.018 C 31.612,47.926 30.664,47.458 29.524,47.458 L 28.66,47.458 L 28.66,50.542 z "
   i:knockout="Off" />
			</g><g
   id="g61"
   i:knockout="Off"
   transform="translate(0,-0.7193528)">
				<path
   id="path63"
   d="M 41.96,46.021 C 42.464,45.924 43.124,45.853 43.963,45.853 C 44.996,45.853 45.752,46.092 46.232,46.525 C 46.676,46.908 46.952,47.497 46.952,48.216 C 46.952,48.948 46.736,49.525 46.316,49.945 C 45.764,50.533 44.864,50.833 43.844,50.833 C 43.532,50.833 43.244,50.82 43.004,50.761 L 43.004,54.001 L 41.96,54.001 L 41.96,46.021 z M 43.004,49.909 C 43.232,49.969 43.532,49.993 43.868,49.993 C 45.139,49.993 45.896,49.369 45.896,48.277 C 45.896,47.197 45.139,46.681 43.988,46.681 C 43.532,46.681 43.184,46.728 43.004,46.765 L 43.004,49.909 L 43.004,49.909 z "
   i:knockout="Off" />
			</g><g
   id="g65"
   i:knockout="Off"
   transform="translate(1.6185438,-2.1580585)">
				<path
   id="path67"
   d="M 25.495,38.562 C 25.963,38.862 26.635,39.09 27.355,39.09 C 28.423,39.09 29.047,38.537 29.047,37.709 C 29.047,36.965 28.615,36.521 27.523,36.113 C 26.203,35.633 25.387,34.937 25.387,33.809 C 25.387,32.548 26.431,31.613 28.003,31.613 C 28.819,31.613 29.431,31.805 29.779,32.009 L 29.491,32.861 C 29.239,32.705 28.699,32.477 27.967,32.477 C 26.863,32.477 26.443,33.136 26.443,33.689 C 26.443,34.445 26.935,34.817 28.051,35.25 C 29.419,35.789 30.103,36.438 30.103,37.625 C 30.103,38.873 29.191,39.965 27.283,39.965 C 26.503,39.965 25.651,39.726 25.219,39.438 L 25.495,38.562 z "
   i:knockout="Off" />
				<path
   id="path69"
   d="M 31.411,38.562 C 31.879,38.862 32.551,39.09 33.271,39.09 C 34.339,39.09 34.963,38.537 34.963,37.709 C 34.963,36.965 34.531,36.521 33.439,36.113 C 32.119,35.633 31.303,34.937 31.303,33.809 C 31.303,32.548 32.347,31.613 33.919,31.613 C 34.735,31.613 35.347,31.805 35.695,32.009 L 35.407,32.861 C 35.155,32.705 34.615,32.477 33.883,32.477 C 32.779,32.477 32.359,33.136 32.359,33.689 C 32.359,34.445 32.851,34.817 33.967,35.25 C 35.335,35.789 36.019,36.438 36.019,37.625 C 36.019,38.873 35.107,39.965 33.199,39.965 C 32.419,39.965 31.567,39.726 31.135,39.438 L 31.411,38.562 z "
   i:knockout="Off" />
			</g><g
   id="g71"
   i:knockout="Off">
				<path
   id="path73"
   d="M 11.948,13.912 L 13.004,13.912 L 13.004,21.124 L 16.46,21.124 L 16.46,22 L 11.948,22 L 11.948,13.912 z "
   i:knockout="Off" />
				<path
   id="path75"
   d="M 17.612,13.912 L 21.968,13.912 L 21.968,14.788 L 18.668,14.788 L 18.668,17.476 L 21.716,17.476 L 21.716,18.34 L 18.668,18.34 L 18.668,22 L 17.612,22 L 17.612,13.912 L 17.612,13.912 z "
   i:knockout="Off" />
			</g><g
   id="g77"
   i:knockout="Off">
				<path
   id="path79"
   d="M 43.268,12.915 C 42.896,13.107 42.116,13.299 41.132,13.299 C 38.852,13.299 37.148,11.859 37.148,9.195 C 37.148,6.651 38.864,4.947 41.372,4.947 C 42.368,4.947 43.016,5.163 43.292,5.307 L 43.028,6.159 C 42.644,5.967 42.08,5.823 41.408,5.823 C 39.512,5.823 38.252,7.035 38.252,9.159 C 38.252,11.151 39.392,12.411 41.348,12.411 C 41.996,12.411 42.644,12.279 43.064,12.075 L 43.268,12.915 z "
   i:knockout="Off" />
				<path
   id="path81"
   d="M 44.575,5.079 L 48.93,5.079 L 48.93,5.955 L 45.631,5.955 L 45.631,8.643 L 48.678,8.643 L 48.678,9.507 L 45.631,9.507 L 45.631,13.167 L 44.574,13.167 L 44.574,5.079 L 44.575,5.079 z "
   i:knockout="Off" />
			</g><g
   id="g83"
   i:knockout="Off">
				<path
   id="path85"
   d="M 66.294,13.532 C 66.821,13.424 67.589,13.352 68.298,13.352 C 69.413,13.352 70.146,13.568 70.65,14.024 C 71.046,14.372 71.286,14.924 71.286,15.56 C 71.286,16.616 70.602,17.324 69.762,17.612 L 69.762,17.648 C 70.375,17.864 70.746,18.44 70.95,19.28 C 71.215,20.408 71.406,21.188 71.562,21.5 L 70.482,21.5 C 70.35,21.272 70.169,20.576 69.955,19.568 C 69.715,18.452 69.27,18.032 68.322,17.996 L 67.338,17.996 L 67.338,21.5 L 66.295,21.5 L 66.295,13.532 L 66.294,13.532 z M 67.337,17.204 L 68.405,17.204 C 69.521,17.204 70.229,16.592 70.229,15.668 C 70.229,14.624 69.473,14.168 68.369,14.168 C 67.865,14.168 67.517,14.216 67.337,14.264 L 67.337,17.204 z "
   i:knockout="Off" />
				<path
   id="path87"
   d="M 72.737,13.412 L 77.092,13.412 L 77.092,14.288 L 73.793,14.288 L 73.793,16.976 L 76.84,16.976 L 76.84,17.84 L 73.793,17.84 L 73.793,21.5 L 72.736,21.5 L 72.736,13.412 L 72.737,13.412 z "
   i:knockout="Off" />
			</g>
	</svg>